<svg width="108" height="108" viewBox="0 0 108 108" fill="none" xmlns="http://www.w3.org/2000/svg">
<path d="M67.075 51.4649C67.725 51.6549 68.405 51.8549 69.105 51.9049C72.215 52.1249 75.425 50.8749 78.395 48.2649C82.575 44.5849 85.685 38.6149 85.955 33.7349C86.225 28.8049 83.365 24.9749 78.835 24.1949C74.345 23.4149 68.255 25.6349 63.665 29.6949C59.925 33.0049 57.895 36.9849 58.075 40.6249C58.115 41.3649 58.315 42.0849 58.505 42.7849C58.605 43.1449 58.705 43.5049 58.785 43.8749L54.655 48.0249C54.255 47.7749 52.585 45.9849 52.495 45.6949C52.325 45.1549 52.445 44.5149 52.555 43.9049C52.615 43.5749 52.675 43.2649 52.695 42.9749C52.795 41.2449 52.735 39.2349 51.475 37.5149L38.295 24.3149C36.945 23.2049 35.145 22.9849 33.595 23.7249C32.085 24.4549 31.135 25.9249 31.105 27.6049C31.075 27.6049 31.035 27.6049 31.005 27.6049C28.545 27.6049 27.015 29.7049 26.785 31.7849C24.755 31.9349 23.165 33.2949 22.605 35.3549V36.9949L23.245 38.5649L23.275 38.6149C24.815 40.1549 26.365 41.7749 27.855 43.3449C30.355 45.9749 32.935 48.6849 35.635 51.1449C38.315 53.5849 39.595 53.4849 42.405 53.2549C42.815 53.2249 43.265 53.1849 43.745 53.1549C45.165 53.0449 45.845 53.7849 46.695 54.6949C46.885 54.8949 47.075 55.1049 47.285 55.3049L25.285 77.4449C23.285 79.9849 24.005 82.7549 25.595 84.3649C26.515 85.2949 27.825 85.9449 29.255 85.9449C30.305 85.9449 31.425 85.5949 32.505 84.7649L54.685 62.7049L76.355 84.3549C78.745 86.2349 81.435 85.6749 83.035 84.2749C84.645 82.8849 85.585 80.2949 84.055 77.6549L61.995 55.3049L66.105 51.2149C66.425 51.2949 66.755 51.3849 67.075 51.4849V51.4649ZM65.435 48.1149L60.005 53.4149L56.695 50.0049L61.465 45.2149C62.215 44.3349 61.825 43.4749 61.435 42.6349C61.225 42.1749 61.005 41.7049 60.955 41.2149C60.675 38.6749 61.625 36.0349 63.715 33.5749C66.835 29.8949 72.235 27.0549 76.555 26.8249C79.695 26.6649 82.125 28.2549 82.905 30.9949C84.005 34.9049 81.605 41.2249 77.435 45.3749C74.325 48.4749 70.975 49.7149 67.995 48.8649C67.745 48.7949 67.475 48.6649 67.195 48.5249C66.615 48.2349 66.015 47.9349 65.445 48.1249L65.435 48.1149ZM38.935 44.2149C39.435 43.8449 39.645 43.1849 39.445 42.5949L29.845 32.7949C29.485 32.1149 29.555 31.3749 30.015 30.8649C30.485 30.3449 31.215 30.2049 31.925 30.4849C33.985 32.2749 35.945 34.2749 37.835 36.2049C39.065 37.4549 40.325 38.7449 41.635 39.9949C42.355 40.4449 43.085 40.1549 43.465 39.7049C43.835 39.2649 43.965 38.5449 43.405 37.9349L34.205 28.6949C33.845 28.1949 33.775 27.5749 34.005 27.0349C34.235 26.5049 34.705 26.1549 35.285 26.0649C35.865 25.9749 36.455 26.3849 36.675 26.5549L49.095 38.9849C50.155 40.3649 49.975 41.7849 49.775 43.2849C49.595 44.6449 49.415 46.0549 50.285 47.4149C56.635 54.1449 63.315 60.7749 69.775 67.1749C73.675 71.0449 77.705 75.0449 81.605 78.9949C82.395 80.3149 81.955 81.5549 81.165 82.2049C80.365 82.8649 79.035 83.0649 77.885 82.0249L47.395 51.5349C46.465 50.5949 45.405 50.3649 44.325 50.3649C43.755 50.3649 43.185 50.4349 42.615 50.4949C41.205 50.6549 39.735 50.8249 38.475 49.9849L25.675 37.2049C25.035 36.1849 25.415 35.3449 25.935 34.9349C26.515 34.4749 27.525 34.3649 28.355 35.2249L37.365 44.2349C37.855 44.5649 38.455 44.5649 38.925 44.2049L38.935 44.2149ZM52.705 60.6949L30.945 82.4449C29.735 83.4649 28.415 83.2149 27.645 82.5049C26.875 81.8049 26.505 80.5249 27.385 79.2649L49.285 57.3849L52.695 60.6849L52.705 60.6949Z" fill="black"/>
<path d="M83.565 1.41504H24.065C11.5558 1.41504 1.41504 11.5558 1.41504 24.065V83.565C1.41504 96.0743 11.5558 106.215 24.065 106.215H83.565C96.0743 106.215 106.215 96.0743 106.215 83.565V24.065C106.215 11.5558 96.0743 1.41504 83.565 1.41504Z" stroke="black" stroke-width="2.83" stroke-miterlimit="10"/>
</svg>
