<svg width="108" height="108" viewBox="0 0 108 108" fill="none" xmlns="http://www.w3.org/2000/svg">
<path d="M27.505 31.2848C20.645 41.6148 30.105 50.3948 34.295 59.3848L34.315 72.2248C29.475 73.5448 27.975 79.6047 31.925 82.8947C34.395 84.9547 38.075 84.6648 40.215 82.2848C41.395 83.3048 42.585 84.0848 44.195 84.2448C51.615 84.9748 53.495 74.1048 46.235 72.2248L46.255 59.3848C48.545 53.8848 54.835 46.7948 55.435 40.9148C55.515 40.0948 55.515 38.5248 55.435 37.6948C54.165 23.9848 34.945 20.0847 27.515 31.2747L27.505 31.2848ZM46.625 75.8448C50.015 78.5548 45.455 83.2648 42.575 80.2048C41.395 78.9548 42.395 76.4147 40.345 76.3047C38.315 76.2048 39.055 79.0048 37.985 80.2048C35.185 83.3148 30.495 78.4948 33.935 75.8448C35.025 74.9948 36.135 75.4848 36.915 74.8448C37.165 74.6348 37.535 73.9048 37.535 73.6248V60.5247H43.045V73.6248C43.045 74.2848 43.715 75.0648 44.385 75.1948C45.385 75.4048 45.675 75.0748 46.645 75.8448H46.625ZM49.945 46.5348C47.975 50.2148 45.725 53.7547 43.765 57.4247H36.785C34.665 53.2447 31.875 49.2247 29.785 45.0547C28.095 41.6647 27.635 38.8648 28.985 35.2048C32.785 24.9248 49.135 25.5548 51.925 36.2148C53.045 40.5048 51.885 42.8847 49.935 46.5247L49.945 46.5348Z" fill="black"/>
<path d="M83.795 58.7849C83.115 51.9049 79.585 45.0848 73.305 38.5248C78.435 34.7548 80.515 30.6549 79.475 26.3249C79.285 25.5149 78.985 24.2949 78.135 23.8549C77.865 23.7149 77.415 23.6049 76.815 23.8549L70.835 28.1148L65.195 24.0349C64.605 23.6149 63.655 23.5448 63.095 24.1748C62.775 24.5248 62.355 25.7948 62.315 25.9248C61.535 28.6448 62.045 31.3649 63.815 34.0049C65.045 35.8449 66.715 37.2549 68.365 38.5149C59.515 47.8149 56.215 57.5749 58.545 67.5149C59.965 73.5749 65.025 81.5449 69.595 84.9149C70.115 85.3049 70.555 85.4549 70.935 85.4549C71.585 85.4549 72.075 85.0049 72.545 84.5749C72.645 84.4849 72.755 84.3748 72.875 84.2748C80.385 77.6448 84.675 67.6349 83.795 58.7849ZM70.855 36.3948C68.715 35.0948 64.575 31.9948 65.065 27.6748C65.585 28.0348 66.315 28.5849 67.015 29.1349C69.195 30.8249 70.215 31.5548 70.825 31.5548C71.215 31.5548 71.525 31.3748 71.855 31.1748L76.625 27.7349C77.085 31.2849 74.065 34.4748 70.855 36.3948ZM78.475 71.4948C76.165 70.2048 73.565 69.5649 70.935 69.5649C68.305 69.5649 65.635 70.2049 63.175 71.4849C62.225 69.1849 61.335 66.7149 61.035 64.0749C60.105 56.0549 63.405 48.0849 70.845 40.3749C74.655 44.3049 79.285 50.3249 80.505 57.3149C81.345 62.1849 80.635 67.1948 78.485 71.4948H78.475ZM64.155 73.9348L64.535 74.2249C64.535 74.2249 64.495 74.2949 64.475 74.3149L64.155 73.9348ZM77.055 74.1748C75.655 76.7448 73.615 79.3048 70.845 81.9648C69.585 81.0348 65.115 75.4749 64.605 74.2249C64.995 73.9549 66.165 73.4749 66.785 73.2549C70.175 72.1149 73.635 72.4149 77.055 74.1649V74.1748Z" fill="black"/>
<path d="M63.525 63.1449C63.805 63.5949 64.285 63.8449 64.815 63.8449C64.945 63.8449 65.075 63.8349 65.215 63.8049C65.525 63.7349 65.755 63.5449 65.935 63.3749L75.115 54.0749L75.235 53.8949C75.495 53.1749 75.295 52.4449 74.735 52.0349C74.185 51.6349 73.455 51.6649 72.815 52.1549L63.665 61.3149C63.225 61.8649 63.175 62.5849 63.525 63.1449Z" fill="black"/>
<path d="M73.8049 57.2848L68.2149 62.8647L68.1349 62.9748C67.7649 63.6348 67.7649 64.3447 68.1349 64.8347C68.4049 65.1947 68.8149 65.3747 69.3049 65.3747C69.4649 65.3747 69.6249 65.3547 69.7949 65.3147C70.0749 65.2547 70.2449 65.1148 70.3749 65.0048L70.4549 64.9347C71.4449 64.1947 72.4249 63.1047 73.3649 62.0547C74.1849 61.1447 75.0249 60.2047 75.8449 59.5247L75.9549 59.4047C76.3849 58.7247 76.3349 57.9247 75.8149 57.4047C75.3049 56.8947 74.5049 56.8348 73.8149 57.2648L73.8049 57.2848Z" fill="black"/>
<path d="M83.565 1.41504H24.065C11.5558 1.41504 1.41504 11.5558 1.41504 24.065V83.565C1.41504 96.0743 11.5558 106.215 24.065 106.215H83.565C96.0743 106.215 106.215 96.0743 106.215 83.565V24.065C106.215 11.5558 96.0743 1.41504 83.565 1.41504Z" stroke="black" stroke-width="2.83" stroke-miterlimit="10"/>
</svg>
