<svg width="108" height="108" viewBox="0 0 108 108" fill="none" xmlns="http://www.w3.org/2000/svg">
<path d="M74.1949 28.4548H71.0049V24.8648C71.0049 24.0848 70.3749 23.4448 69.5849 23.4448H38.0149C37.2349 23.4448 36.5949 24.0748 36.5949 24.8648V28.4548H33.6749C32.8949 28.4548 32.2549 29.0848 32.2549 29.8748V37.8848C32.2549 38.6648 32.8849 39.3048 33.6749 39.3048H35.0449L38.8549 79.3448C38.8949 81.9948 41.0649 84.1348 43.7249 84.1348H64.0549C66.7149 84.1348 68.8849 81.9948 68.9249 79.3448L72.8749 39.3048H74.1849C74.9649 39.3048 75.6049 38.6748 75.6049 37.8848V29.8748C75.6049 29.0948 74.9749 28.4548 74.1849 28.4548H74.1949ZM39.4349 26.2848H68.1649V28.2748H39.4349V26.2848ZM66.1049 79.1248C66.1049 79.1248 66.1049 79.2148 66.1049 79.2648C66.1049 80.3848 65.1949 81.2948 64.0649 81.2948H43.7349C42.6149 81.2948 41.6949 80.3848 41.6949 79.2648C41.6949 79.2248 41.6949 79.1748 41.6949 79.1348L37.9249 39.5248H70.0149L66.1049 79.1248ZM35.1049 31.2848H72.7849V36.4648H35.1049V31.2848Z" fill="black"/>
<path d="M83.565 1.41504H24.065C11.5558 1.41504 1.41504 11.5558 1.41504 24.065V83.565C1.41504 96.0743 11.5558 106.215 24.065 106.215H83.565C96.0742 106.215 106.215 96.0743 106.215 83.565V24.065C106.215 11.5558 96.0742 1.41504 83.565 1.41504Z" stroke="black" stroke-width="2.83" stroke-miterlimit="10"/>
</svg>
