<svg width="108" height="108" viewBox="0 0 108 108" fill="none" xmlns="http://www.w3.org/2000/svg">
<path d="M48.855 39.7449C48.855 39.6749 48.245 33.865 40.975 32.485L45.6349 28.8649C46.2549 28.3849 46.3649 27.4949 45.8849 26.8749C45.4049 26.2549 44.5149 26.1449 43.8949 26.6249L39.5649 29.985V23.2249C39.5649 22.4449 38.9349 21.8049 38.1449 21.8049C37.3549 21.8049 36.725 22.4349 36.725 23.2249V29.9949L32.3849 26.6249C31.7649 26.1449 30.8749 26.2549 30.3949 26.8749C29.9149 27.4949 30.0249 28.3849 30.6449 28.8649L35.1549 32.3649C27.5749 33.4549 26.485 39.4249 26.475 39.4949C26.445 39.6749 26.455 39.865 26.495 40.045L36.665 83.7449C36.815 84.3849 37.385 84.8449 38.045 84.8449H38.055C38.715 84.8449 39.285 84.3749 39.425 83.7249L48.8149 40.1549C48.8449 40.0149 48.855 39.875 48.845 39.735L48.855 39.7449ZM43.4549 51.6349H37.725C36.945 51.6349 36.305 52.2649 36.305 53.0549C36.305 53.8449 36.935 54.4749 37.725 54.4749H42.845L37.995 76.955L34.875 63.5549H37.355C38.135 63.5549 38.7749 62.9249 38.7749 62.1349C38.7749 61.3449 38.145 60.7149 37.355 60.7149H34.2149L30.5249 44.8449H37.985C38.765 44.8449 39.4049 44.2149 39.4049 43.4249C39.4049 42.6349 38.775 42.0049 37.985 42.0049H29.865L29.3349 39.7249C29.6249 38.7349 31.1949 34.9449 37.9649 35.0049C44.7049 35.1049 45.8349 38.925 46.0049 39.795L43.4549 51.6149V51.6349Z" fill="black"/>
<path d="M65.3751 44.2949C65.4551 44.3149 66.255 44.4549 67.395 44.4549C69.305 44.4549 72.195 44.0648 74.405 42.0248C76.755 39.8548 77.7051 36.4548 77.2251 31.9048C77.1551 31.2548 76.655 30.7348 76.015 30.6548C75.785 30.6248 70.3851 29.9148 66.9951 33.3048C63.6251 36.6748 64.2151 42.8048 64.2451 43.0648C64.3051 43.6848 64.775 44.1948 65.395 44.3148L65.3751 44.2949ZM68.9851 35.2949C70.6051 33.6749 73.0651 33.4048 74.4851 33.3948C74.6151 36.3848 73.9451 38.5748 72.4851 39.9248C70.8051 41.4848 68.3951 41.6549 66.9951 41.6049C67.0051 39.7849 67.3751 36.8949 68.9851 35.2949Z" fill="black"/>
<path d="M83.0149 53.915C81.6949 50.855 79.4249 48.835 76.4549 48.085C70.1349 46.475 65.9249 48.645 64.0949 49.955C62.7949 48.935 60.3249 47.355 57.5149 47.355C53.6049 47.355 50.9649 49.085 50.8549 49.155C50.2049 49.585 50.0249 50.465 50.4649 51.125C50.8949 51.775 51.7749 51.955 52.4349 51.515C52.4549 51.505 54.5049 50.185 57.5149 50.185C60.5249 50.185 63.0449 52.775 63.0649 52.805C63.3349 53.075 63.6949 53.215 64.0749 53.215C64.4549 53.215 64.8149 53.065 65.0849 52.795C65.2349 52.645 68.8849 49.075 75.7549 50.825C77.8749 51.365 79.4449 52.785 80.4149 55.035C82.0449 58.825 81.6749 64.535 79.5649 68.325C76.1449 74.455 71.9849 79.515 70.7649 80.025C70.3149 80.015 69.7249 79.875 69.0049 79.685C67.8349 79.375 66.2349 78.945 63.9849 78.945C61.7349 78.945 60.0149 79.295 58.7049 79.565C58.2149 79.665 57.7749 79.765 57.3849 79.815C56.0949 79.395 51.5749 74.885 49.9149 72.345L48.2549 69.805C47.8249 69.145 46.9449 68.965 46.2949 69.395C45.6449 69.825 45.4549 70.705 45.8849 71.355L47.5449 73.895C48.4449 75.265 54.6949 83.025 57.6149 82.645C58.1549 82.575 58.7149 82.465 59.2949 82.335C60.5449 82.075 61.9549 81.775 63.9949 81.775C65.8749 81.775 67.1549 82.115 68.2849 82.425C69.1149 82.645 69.9049 82.865 70.7449 82.865C70.8349 82.865 70.9349 82.865 71.0249 82.865C74.1549 82.685 80.1949 73.065 82.0649 69.715C84.2449 65.805 85.2849 59.115 83.0449 53.915H83.0149Z" fill="black"/>
<path d="M69.795 57.8749C69.855 57.8949 71.345 58.3049 72.465 60.0849C73.635 61.9549 73.6251 63.265 73.6251 63.265C73.5751 64.045 74.175 64.715 74.955 64.765C74.985 64.765 75.015 64.765 75.035 64.765C75.775 64.765 76.405 64.1849 76.445 63.4349C76.455 63.2149 76.5251 61.2449 74.8651 58.5949C73.1351 55.8349 70.735 55.195 70.475 55.135C69.725 54.955 68.975 55.4149 68.785 56.1649C68.595 56.9149 69.0551 57.685 69.8051 57.885L69.795 57.8749Z" fill="black"/>
<path d="M83.565 1.41504H24.065C11.5558 1.41504 1.41504 11.5558 1.41504 24.065V83.565C1.41504 96.0743 11.5558 106.215 24.065 106.215H83.565C96.0742 106.215 106.215 96.0743 106.215 83.565V24.065C106.215 11.5558 96.0742 1.41504 83.565 1.41504Z" stroke="black" stroke-width="2.83" stroke-miterlimit="10"/>
</svg>
