<svg width="108" height="108" viewBox="0 0 108 108" fill="none" xmlns="http://www.w3.org/2000/svg">
<path d="M83.6249 42.635L54.6649 21.765C54.1149 21.365 53.3549 21.415 52.8549 21.885L47.7249 26.7749C46.3549 25.7649 44.655 25.155 42.825 25.155C38.255 25.155 34.5449 28.865 34.5449 33.435C34.5449 35.355 35.2049 37.125 36.3149 38.535C36.2249 38.585 36.1349 38.625 36.0549 38.695L22.7549 50.955C22.4649 51.225 22.2949 51.6049 22.2949 51.9949V76.385C22.2949 76.795 22.4749 77.185 22.7849 77.455C23.0449 77.675 23.375 77.795 23.705 77.795C23.775 77.795 23.8449 77.7949 23.9149 77.7749L83.0049 68.905C83.6949 68.805 84.215 68.205 84.215 67.505V43.765C84.215 43.305 83.9949 42.8849 83.6249 42.6149V42.635ZM25.1249 53.725L81.3749 46.0549V54.9949L25.1249 62.655V53.715V53.725ZM42.825 27.9949C45.825 27.9949 48.275 30.435 48.275 33.445C48.275 36.455 45.835 38.8949 42.825 38.8949C39.815 38.8949 37.3749 36.455 37.3749 33.445C37.3749 30.435 39.815 27.9949 42.825 27.9949ZM37.9749 40.7749C38.1049 40.6549 38.2049 40.505 38.2849 40.345C39.5949 41.205 41.155 41.715 42.825 41.715C47.395 41.715 51.1049 38.005 51.1049 33.435C51.1049 31.725 50.5849 30.135 49.6949 28.815L53.965 24.7449L79.8549 43.405L27.3649 50.5549L37.9749 40.7749ZM25.1249 74.7449V65.5249L81.3749 57.8649V66.3049L25.1249 74.755V74.7449Z" fill="black"/>
<path d="M83.5651 1.41504H24.0651C11.5558 1.41504 1.41504 11.5558 1.41504 24.065V83.565C1.41504 96.0743 11.5558 106.215 24.0651 106.215H83.5651C96.0743 106.215 106.215 96.0743 106.215 83.565V24.065C106.215 11.5558 96.0743 1.41504 83.5651 1.41504Z" stroke="black" stroke-width="2.83" stroke-miterlimit="10"/>
</svg>
