<svg width="31" height="31" viewBox="0 0 31 31" fill="none" xmlns="http://www.w3.org/2000/svg">
<mask id="path-1-inside-1_449_204" fill="white">
<path d="M0 15.1972C0 6.80403 6.80403 0 15.1972 0C23.5904 0 30.3944 6.80403 30.3944 15.1972C30.3944 23.5904 23.5904 30.3944 15.1972 30.3944C6.80403 30.3944 0 23.5904 0 15.1972Z"/>
</mask>
<path d="M0 15.1972M30.3944 15.1972M30.3944 15.1972M0 15.1972M15.1972 0M30.3944 15.1972M15.1972 30.3944M0 15.1972M15.1972 30.3944V29.3813C7.36357 29.3813 1.01315 23.0309 1.01315 15.1972H0H-1.01315C-1.01315 24.15 6.24448 31.4076 15.1972 31.4076V30.3944ZM30.3944 15.1972H29.3813C29.3813 23.0309 23.0309 29.3813 15.1972 29.3813V30.3944V31.4076C24.15 31.4076 31.4076 24.15 31.4076 15.1972H30.3944ZM15.1972 0V1.01315C23.0309 1.01315 29.3813 7.36357 29.3813 15.1972H30.3944H31.4076C31.4076 6.24448 24.15 -1.01315 15.1972 -1.01315V0ZM15.1972 0V-1.01315C6.24448 -1.01315 -1.01315 6.24448 -1.01315 15.1972H0H1.01315C1.01315 7.36357 7.36357 1.01315 15.1972 1.01315V0Z" fill="white" mask="url(#path-1-inside-1_449_204)"/>
<g clip-path="url(#clip0_449_204)">
<path d="M14.6401 6.70459L23.1213 15.1972L14.6401 23.6897M23.1021 15.1972H6.13849" stroke="white" stroke-width="1.13234"/>
</g>
<defs>
<clipPath id="clip0_449_204">
<rect width="19.2498" height="19.2498" fill="white" transform="translate(5.57233 5.57227)"/>
</clipPath>
</defs>
</svg>
