<svg width="28" height="28" viewBox="0 0 28 28" fill="none" xmlns="http://www.w3.org/2000/svg">
<path d="M4.51624 20.3226C4.19635 20.3226 3.92839 20.2142 3.71237 19.9974C3.49635 19.7807 3.38796 19.5127 3.38721 19.1936C3.38646 18.8744 3.49485 18.6065 3.71237 18.3897C3.9299 18.1729 4.19786 18.0645 4.51624 18.0645H22.5808C22.9007 18.0645 23.169 18.1729 23.3858 18.3897C23.6025 18.6065 23.7105 18.8744 23.7098 19.1936C23.709 19.5127 23.6007 19.781 23.3846 19.9986C23.1686 20.2161 22.9007 20.3241 22.5808 20.3226H4.51624ZM4.51624 14.6774C4.19635 14.6774 3.92839 14.569 3.71237 14.3523C3.49635 14.1355 3.38796 13.8675 3.38721 13.5484C3.38646 13.2293 3.49485 12.9613 3.71237 12.7445C3.9299 12.5277 4.19786 12.4194 4.51624 12.4194H22.5808C22.9007 12.4194 23.169 12.5277 23.3858 12.7445C23.6025 12.9613 23.7105 13.2293 23.7098 13.5484C23.709 13.8675 23.6007 14.1359 23.3846 14.3534C23.1686 14.5709 22.9007 14.6789 22.5808 14.6774H4.51624ZM4.51624 9.03226C4.19635 9.03226 3.92839 8.92388 3.71237 8.7071C3.49635 8.49033 3.38796 8.22237 3.38721 7.90323C3.38646 7.58409 3.49485 7.31614 3.71237 7.09936C3.9299 6.88259 4.19786 6.7742 4.51624 6.7742H22.5808C22.9007 6.7742 23.169 6.88259 23.3858 7.09936C23.6025 7.31614 23.7105 7.58409 23.7098 7.90323C23.709 8.22237 23.6007 8.49071 23.3846 8.70823C23.1686 8.92576 22.9007 9.03377 22.5808 9.03226H4.51624Z" fill="black"/>
</svg>
