<svg width="24" height="24" viewBox="0 0 24 24" fill="none" xmlns="http://www.w3.org/2000/svg">
<path d="M14.037 20.937C13.8543 20.9369 13.6752 20.8867 13.519 20.792L10.185 18.792C9.80988 18.5657 9.49937 18.2467 9.2834 17.8655C9.06744 17.4844 8.9533 17.0541 8.952 16.616V12.091C8.95264 11.7716 8.85334 11.4601 8.668 11.2L4.013 4.65799C3.9043 4.50697 3.83944 4.32885 3.82557 4.1433C3.81169 3.95774 3.84935 3.77196 3.93438 3.60645C4.01941 3.44094 4.14851 3.30214 4.30743 3.20536C4.46636 3.10858 4.64893 3.05758 4.835 3.05799H19.165C19.3512 3.05722 19.534 3.10799 19.6932 3.20469C19.8523 3.3014 19.9816 3.44026 20.0667 3.6059C20.1518 3.77154 20.1894 3.9575 20.1753 4.14319C20.1613 4.32888 20.0961 4.50706 19.987 4.65799L15.332 11.2C15.1463 11.46 15.0466 11.7715 15.047 12.091V19.925C15.0467 20.193 14.9403 20.4499 14.751 20.6396C14.5617 20.8293 14.305 20.9362 14.037 20.937ZM4.835 4.06299L9.482 10.62C9.78998 11.0484 9.95449 11.5633 9.952 12.091V16.615C9.95237 16.8804 10.0213 17.1413 10.1522 17.3722C10.2831 17.6031 10.4715 17.7963 10.699 17.933L14.033 19.933L14.047 12.09C14.0448 11.5622 14.2097 11.0473 14.518 10.619L19.172 4.07699L4.835 4.06299Z" fill="black"/>
</svg>
