<svg width="14" height="14" viewBox="0 0 14 14" fill="none" xmlns="http://www.w3.org/2000/svg">
<path d="M4.24192 5.81996C4.24192 6.10448 4.24192 6.38254 4.24192 6.65413C4.24192 6.92572 4.24192 7.19946 4.24192 7.47536C4.62991 7.47536 5.01789 7.47536 5.40588 7.47536C5.79386 7.47536 6.18185 7.47536 6.56983 7.47536C6.5181 7.74264 6.41895 7.99052 6.27238 8.219C6.1258 8.44748 5.94043 8.63932 5.71626 8.79451C5.57831 8.88073 5.42743 8.95617 5.26361 9.02084C5.0998 9.0855 4.94029 9.13077 4.7851 9.15663C4.62128 9.1825 4.451 9.19759 4.27425 9.2019C4.0975 9.20621 3.92291 9.19112 3.75047 9.15663C3.58665 9.13077 3.42715 9.08119 3.27196 9.00791C3.11676 8.93462 2.96588 8.84624 2.81931 8.74278C2.58651 8.58759 2.38821 8.39791 2.22439 8.17374C2.06058 7.94957 1.93125 7.70815 1.83641 7.4495C1.75019 7.18222 1.70708 6.90847 1.70708 6.62826C1.70708 6.34805 1.75019 6.06999 1.83641 5.79409C1.89676 5.61303 1.97867 5.43628 2.08213 5.26384C2.1856 5.09141 2.31061 4.9319 2.45719 4.78533C2.621 4.62151 2.81499 4.4771 3.03916 4.35208C3.26333 4.22706 3.49181 4.13869 3.72461 4.08695C3.93153 4.05247 4.14061 4.03522 4.35185 4.03522C4.56309 4.03522 4.76786 4.06971 4.96616 4.13869C5.14722 4.19042 5.31535 4.26155 5.47054 4.35208C5.62573 4.44261 5.768 4.55254 5.89732 4.68187C6.02665 4.55254 6.15598 4.42321 6.28531 4.29388C6.41464 4.16455 6.54397 4.03522 6.6733 3.90589C6.73365 3.8283 6.80047 3.75717 6.87375 3.6925C6.94704 3.62784 7.01817 3.56102 7.08715 3.49204C6.89746 3.30236 6.68623 3.13639 6.45344 2.99413C6.22065 2.85187 5.97492 2.73332 5.71626 2.63848C5.26793 2.47466 4.79372 2.3906 4.29365 2.38628C3.79358 2.38197 3.31075 2.45742 2.84517 2.61261C2.32786 2.79367 1.86012 3.06741 1.44196 3.43385C1.02379 3.80028 0.689696 4.22491 0.43966 4.70773C0.362063 4.87155 0.293088 5.04399 0.232735 5.22505C0.172381 5.40611 0.12065 5.59579 0.0775404 5.79409C-0.00867857 6.24243 -0.0216114 6.7037 0.0387419 7.17791C0.0990952 7.65211 0.232735 8.10476 0.43966 8.53586C0.577611 8.80313 0.743582 9.05748 0.937575 9.29889C1.13157 9.54031 1.35358 9.75154 1.60362 9.9326C1.83641 10.1137 2.08213 10.2732 2.34079 10.4111C2.59945 10.5491 2.87104 10.6568 3.15556 10.7344C3.50044 10.8207 3.85824 10.8638 4.22899 10.8638C4.59973 10.8638 4.96616 10.8207 5.32828 10.7344C5.64729 10.6741 5.95337 10.5685 6.24651 10.4176C6.53966 10.2667 6.81125 10.0792 7.06128 9.85501C7.31994 9.61359 7.53764 9.33985 7.71439 9.03377C7.89114 8.72769 8.02693 8.40653 8.12177 8.07027C8.23386 7.70815 8.29852 7.33741 8.31577 6.95805C8.33301 6.57868 8.31146 6.19932 8.2511 5.81996C7.5786 5.81996 6.9104 5.81996 6.24651 5.81996C5.58263 5.81996 4.91443 5.81996 4.24192 5.81996ZM13.2432 5.92342H11.7947V4.47494H10.7342V5.92342H9.28573V6.98391H10.7342V8.43239H11.7947V6.98391H13.2432V5.92342Z" fill="white"/>
</svg>
