<svg width="14" height="14" viewBox="0 0 14 14" fill="none" xmlns="http://www.w3.org/2000/svg">
<path d="M11.8982 3.93137C11.8982 3.9831 11.8982 4.03914 11.8982 4.09949C11.8982 4.15984 11.8982 4.21589 11.8982 4.26762C11.8982 5.1643 11.7301 6.07175 11.3938 6.98998C11.0576 7.90822 10.5618 8.73808 9.90657 9.47956C9.2513 10.221 8.443 10.8267 7.48166 11.2966C6.52031 11.7665 5.41455 12.0015 4.16438 12.0015C3.78502 12.0015 3.40996 11.9756 3.03922 11.9239C2.66848 11.8721 2.30851 11.7945 1.95933 11.6911C1.61014 11.5876 1.27173 11.4604 0.944098 11.3096C0.616466 11.1587 0.301767 10.9841 0 10.7858C0.103463 10.7944 0.211237 10.8009 0.323321 10.8052C0.435406 10.8095 0.54318 10.8116 0.646643 10.8116C1.27604 10.8116 1.88173 10.7125 2.46371 10.5142C3.04569 10.3159 3.56947 10.027 4.03505 9.64769C3.44014 9.64769 2.90989 9.46878 2.44431 9.11097C1.97873 8.75316 1.65541 8.30267 1.47435 7.75949C1.56056 7.78535 1.64463 7.80044 1.72654 7.80475C1.80844 7.80906 1.89682 7.81122 1.99166 7.81122C2.12099 7.81122 2.24385 7.80475 2.36025 7.79182C2.47664 7.77889 2.59519 7.75949 2.7159 7.73362C2.09512 7.60429 1.57781 7.2896 1.16396 6.78953C0.750106 6.28945 0.54318 5.7161 0.54318 5.06946C0.54318 5.06083 0.54318 5.05437 0.54318 5.05006C0.54318 5.04575 0.54318 5.03497 0.54318 5.01772C0.72424 5.12119 0.916077 5.2031 1.11869 5.26345C1.32131 5.3238 1.5347 5.35398 1.75887 5.35398C1.39675 5.12119 1.1036 4.80433 0.879434 4.40341C0.655265 4.0025 0.54318 3.56924 0.54318 3.10366C0.54318 2.86225 0.577667 2.62515 0.646643 2.39235C0.715618 2.15956 0.810459 1.9397 0.931165 1.73278C1.2588 2.14663 1.62954 2.52168 2.04339 2.85794C2.45724 3.19419 2.90127 3.48518 3.37547 3.73091C3.84968 3.97663 4.35191 4.17278 4.88215 4.31935C5.4124 4.46592 5.95773 4.55214 6.51816 4.57801C6.49229 4.47454 6.47289 4.37108 6.45996 4.26762C6.44703 4.16416 6.44056 4.06069 6.44056 3.95723C6.44056 3.58649 6.51169 3.23515 6.65395 2.9032C6.79621 2.57126 6.99021 2.28243 7.23593 2.0367C7.48166 1.79098 7.76833 1.59698 8.09597 1.45472C8.4236 1.31246 8.7771 1.24133 9.15646 1.24133C9.55307 1.24133 9.92165 1.31893 10.2622 1.47412C10.6028 1.62932 10.8981 1.83624 11.1481 2.0949C11.4585 2.03455 11.7603 1.95048 12.0534 1.84271C12.3466 1.73493 12.6225 1.60345 12.8811 1.44826C12.7777 1.75865 12.6225 2.04317 12.4155 2.30183C12.2086 2.56048 11.9672 2.77603 11.6913 2.94847C11.9586 2.91398 12.2215 2.86225 12.4802 2.79327C12.7389 2.7243 12.9932 2.62946 13.2432 2.50875C13.0622 2.77603 12.8574 3.03038 12.6289 3.27179C12.4005 3.5132 12.1569 3.73306 11.8982 3.93137Z" fill="white"/>
</svg>
