<svg width="1300" height="302" viewBox="0 0 1300 302" fill="none" xmlns="http://www.w3.org/2000/svg">
<path d="M547.452 87.3486C610.686 81.3149 667.54 104.308 675.338 174.36C681.383 228.742 663.045 280.078 605.902 295.965C598.79 297.942 592.09 298.848 584.97 300.432C517.918 307.5 459.265 277.705 456.141 203.694C454.949 175.42 458.088 148.789 475.227 125.086C493.441 99.9066 518.191 92.2089 547.452 87.3486Z" fill="#FEFEFE"/>
<path d="M559.207 128.592C573.907 128.348 589.769 129.436 602.062 138.689C628.798 158.813 628.237 215.366 610.164 240.801C601.22 253.381 587.486 257.022 573.183 259.168C539.568 260.404 516.859 248.51 511.024 212.783C507.682 192.299 508.733 165.896 520.995 148.286C530.702 134.335 543.19 131.172 559.207 128.592Z" fill="#D01D1D"/>
<path d="M309.419 87.3595C338.882 83.4752 375.816 89.6187 397.177 111.674C422.886 138.213 425.308 172.613 425.129 207.428C376.003 208.172 325.701 207.228 276.372 207.548C278.741 225.273 282.153 241.748 298.637 251.37C322.18 265.117 367.434 264.512 392.729 258.57C399.257 257.663 405.996 256.043 412.719 254.984L412.711 293.815C409.735 294.147 406.767 294.987 403.823 295.517C333.647 308.136 233.868 307.683 224.232 214.89C219.285 167.281 229.482 116.077 278.749 95.2861C289.281 90.8425 298.38 89.4504 309.419 87.3595Z" fill="#FEFEFE"/>
<path d="M316.756 121.496C317.317 121.316 317.551 121.256 318.143 121.206C334.846 119.793 353.246 123.053 363.756 137.385C372.621 149.469 374.031 163.638 374.826 178.057L335.025 178.096C316.32 178.118 294.344 178.681 275.896 177.845C279.69 147.716 283.515 128.388 316.756 121.496Z" fill="#D01D1D"/>
<path d="M831.721 87.3218C875.066 83.1119 916.386 96.6663 925.96 144.263C930.331 165.993 928.819 188.67 928.812 210.84L928.781 298.744L875.284 298.746L875.315 221.064C875.331 203.043 876.087 184.918 874.365 166.991C870.789 129.783 836.255 127.687 807.321 137.103C794.195 142.457 788.547 146.768 778.855 156.676C777.866 202.21 778.824 252.816 778.824 298.68C762.402 299.311 742.077 298.738 725.343 298.739L725.328 89.1128L768.845 89.119C771.291 95.8296 770.816 103.491 773.683 112.17C794.974 96.3976 805.459 92.1892 831.721 87.3218Z" fill="#FEFEFE"/>
<path d="M1072.01 89.258C1091.1 88.5444 1113.51 89.1209 1132.84 89.138C1136.71 93.1189 1146.49 106.268 1150.43 111.321L1186.36 157.491L1220.82 113.219C1226.34 106.106 1234.02 95.5978 1239.98 89.1364L1298.79 89.166L1244.82 157.41C1236.11 168.42 1226.17 181.63 1217.03 192.088C1242.25 223.122 1266.37 255.241 1291.55 286.321C1294.42 289.875 1297.49 293.279 1300 297.111L1299.68 298.401L1297.72 298.747C1278.58 298.849 1259.46 298.805 1240.33 298.616C1224.25 278.418 1201.98 248.394 1185.36 229.689C1179.55 235.498 1166.96 251.833 1161.49 258.9C1151.77 271.462 1139.04 285.975 1130.03 298.676C1111.77 299.269 1088.52 298.873 1070.19 298.608L1153.94 193.722L1072.01 89.258Z" fill="#FEFEFE"/>
<path d="M0.00855873 16.0998L55.4618 16.0928L55.454 255.623C71.876 256.11 90.3781 255.685 107.049 255.688L207.342 255.705L207.327 298.737L0 298.73L0.00855873 16.0998Z" fill="#FEFEFE"/>
<path d="M985.481 89.1238L1038.96 89.1113V228.848C1038.96 247.593 1040.16 281.325 1038.67 298.721L985.496 298.732C984.445 229.875 985.481 158.215 985.481 89.1238Z" fill="#FEFEFE"/>
<path d="M1003.36 0.129533C1014.05 0.0165732 1022.76 -0.827124 1032.65 3.87824C1048.92 11.6125 1050.4 35.6504 1037.77 47.17C1032.86 51.6486 1028.33 52.6216 1022.21 54.4664C1010.28 54.7757 999.098 55.8305 988.378 48.8605C976.319 41.0203 975.002 23.2427 982.566 11.8112C987.264 4.69467 995.085 1.60658 1003.36 0.129533Z" fill="#FEFEFE"/>
</svg>
