<svg width="126" height="127" viewBox="0 0 126 127" fill="none" xmlns="http://www.w3.org/2000/svg">
<path d="M86.3 0H122.1C124 0 125.6 1.6 125.6 3.5V39.3C125.6 41.2 124 42.8 122.1 42.8H86.3C84.4 42.8 82.8 41.2 82.8 39.3V3.5C82.8 1.6 84.4 0 86.3 0Z" fill="#F0001E"/>
<path d="M122.2 83.6H86C85.1 83.6 84.2 84 83.6 84.6L66.1 101.6C64.8 102.9 62.6 102.9 61.3 101.6L27.2 67.5L25.4 65.6C24.8 65 24.5 64.3 24.5 63.6C24.5 63.5 24.5 63.4 24.5 63.2C24.5 63.1 24.5 63 24.5 62.8C24.5 62.1 24.9 61.3 25.4 60.8L41.8 43.8C42.4 43.2 42.8 42.3 42.8 41.4V3.5C42.8 1.6 41.2 0 39.3 0H3.5C1.6 0 0 1.6 0 3.5V41.4C0 42.3 0.4 43.2 1 43.8L17.4 60.8C18 61.4 18.3 62.1 18.3 62.8C18.3 62.9 18.3 63 18.3 63.2C18.3 63.3 18.3 63.4 18.3 63.6C18.3 64.3 17.9 65.1 17.4 65.6L1 82.6C0.4 83.2 0 84.1 0 85V122.9C0 124.8 1.6 126.4 3.5 126.4H31.7C31.7 126.4 32.3 126.4 33.2 126.4H39.3C39.6 126.4 39.9 126.4 40.1 126.3C42 126.2 43.8 125.4 45.2 124L47.8 121.5L61.3 108.5C62.6 107.2 64.8 107.2 66.1 108.5L83.6 125.5C84.2 126.1 85.1 126.5 86 126.5H122.2C124.1 126.5 125.7 124.9 125.7 123V87.2C125.7 85.3 124.1 83.7 122.2 83.7V83.6Z" fill="#F0001E"/>
</svg>
