<svg width="108" height="108" viewBox="0 0 108 108" fill="none" xmlns="http://www.w3.org/2000/svg">
<path d="M80.7954 49.025C80.7754 48.475 80.4354 47.985 79.9254 47.765C79.4154 47.555 78.8253 47.655 78.4153 48.035L76.4153 49.885C75.7653 45.545 73.8154 37.005 68.1754 30.425C62.0054 23.225 54.1454 22.435 53.8154 22.405V22.475L53.8054 22.405C53.4754 22.435 45.6154 23.225 39.4454 30.425C34.4054 36.305 31.8054 44.035 30.9354 49.725L29.1154 48.035C28.7054 47.655 28.1254 47.555 27.6054 47.765C27.0954 47.975 26.7554 48.465 26.7354 49.025C26.2354 62.685 29.1654 72.845 35.4554 79.215C41.6254 85.475 49.2853 86.275 52.7753 86.275C52.9553 86.275 53.1254 86.275 53.2854 86.275C53.7254 86.275 54.1653 86.275 54.6054 86.275C57.7354 86.355 65.7254 85.815 72.1154 79.335C78.3954 72.965 81.3154 62.775 80.8054 49.035L80.7954 49.025ZM41.5954 32.275C45.3054 27.945 49.7754 26.245 52.2154 25.605C53.2654 25.335 54.3454 25.335 55.3954 25.605C57.8454 26.245 62.3054 27.945 66.0154 32.275C72.2954 39.605 73.6153 49.675 73.8554 52.255L71.0554 54.845L62.9554 47.845C62.4054 47.365 61.5754 47.385 61.0454 47.895L53.7554 54.915L46.4654 47.895C45.9354 47.385 45.1054 47.365 44.5554 47.845L36.4554 54.845L33.4854 52.095C33.9354 46.775 36.3154 38.415 41.5854 32.265L41.5954 32.275ZM70.0854 77.335C64.4654 83.035 57.4254 83.485 54.6554 83.435C54.1754 83.435 53.6854 83.425 53.2054 83.435C50.3754 83.495 43.1754 83.025 37.4554 77.225C32.2154 71.915 29.5454 63.525 29.4954 52.275L35.4554 57.795C35.9854 58.285 36.7954 58.295 37.3454 57.825L45.4254 50.845L52.7654 57.915C53.3154 58.445 54.1854 58.445 54.7354 57.915L62.0754 50.845L70.1554 57.825C70.7054 58.295 71.5154 58.285 72.0454 57.795L78.0054 52.275C77.9654 63.605 75.3054 72.025 70.0654 77.335H70.0854Z" fill="black"/>
<path d="M54.8754 35.1551C54.8754 35.1551 57.7954 35.8951 59.9554 38.1851C62.8854 41.2951 63.3354 43.4551 63.3354 43.4651C63.4554 44.1551 64.0554 44.6451 64.7354 44.6451C64.8154 44.6451 64.8954 44.6451 64.9754 44.6251C65.7454 44.4951 66.2654 43.7651 66.1354 42.9951C66.0854 42.6951 65.5454 39.9951 62.0254 36.2451C59.2654 33.3151 55.6954 32.4351 55.5454 32.4051C54.7854 32.2251 54.0254 32.6951 53.8454 33.4551C53.6654 34.2151 54.1254 34.9751 54.8854 35.1651L54.8754 35.1551Z" fill="black"/>
<path d="M83.565 1.41504H24.065C11.5558 1.41504 1.41504 11.5558 1.41504 24.065V83.565C1.41504 96.0743 11.5558 106.215 24.065 106.215H83.565C96.0743 106.215 106.215 96.0743 106.215 83.565V24.065C106.215 11.5558 96.0743 1.41504 83.565 1.41504Z" stroke="black" stroke-width="2.83" stroke-miterlimit="10"/>
</svg>
