<svg width="101" height="101" viewBox="0 0 101 101" fill="none" xmlns="http://www.w3.org/2000/svg">
<path d="M37.4641 82.2646C37.4641 82.2646 35.7844 82.7511 33.0214 81.7781C30.6532 80.952 30.5981 77.2712 30.5981 77.2436V43.3176C30.5981 39.6092 31.3692 38.3609 31.562 38.113C31.6354 38.0763 31.6079 38.0763 31.6997 37.9753C31.7272 37.9478 34.8297 34.8453 36.5921 33.2389C38.6483 31.3756 38.4372 28.8788 38.3362 28.2179V25.5285C38.3362 25.0052 38.327 24.482 38.3178 23.9588C38.2719 21.9027 38.2352 19.9567 38.9603 18.8185C39.6946 17.6619 41.2827 17.6069 41.3286 17.6069C42.0446 17.6069 42.6228 17.0194 42.6228 16.3034C42.6228 15.5875 42.0446 15 41.3194 15C41.2001 15 38.281 15.0275 36.7665 17.4141C35.6099 19.2224 35.665 21.5539 35.72 24.0139C35.7292 24.5096 35.7384 25.0236 35.7384 25.5285V28.3281C35.7384 28.4107 35.7476 28.5025 35.766 28.5851C35.7752 28.6494 36.0597 30.2098 34.8481 31.3113C33.1499 32.8626 30.3595 35.6347 29.9189 36.0753C29.3223 36.5618 28.0005 38.2324 28.0005 43.3084V77.2345C28.0005 77.4639 28.0463 82.7878 32.1677 84.229C33.8567 84.8164 35.252 84.9816 36.2801 84.9816C37.4458 84.9816 38.1526 84.7705 38.2811 84.7246C38.9603 84.4951 39.3183 83.7792 39.098 83.0999C38.8869 82.4207 38.1617 82.0443 37.4733 82.2463L37.4641 82.2646Z" fill="#EA0711"/>
<path d="M70.6651 36.0844C70.2245 35.6438 67.4341 32.8718 65.736 31.3205C64.5243 30.219 64.8089 28.6585 64.818 28.6035C64.8364 28.5117 64.8456 28.4199 64.8456 28.3281V25.5285C64.8456 25.0236 64.8547 24.5188 64.8639 24.0139C64.919 21.5539 64.9649 19.2224 63.8176 17.4141C62.303 15.0275 59.384 15 59.2646 15C58.5487 15 57.9705 15.5783 57.9705 16.2943C57.9705 17.0102 58.5395 17.5977 59.2554 17.6069C59.2738 17.6069 60.8802 17.6436 61.6237 18.8185C62.3489 19.9659 62.3121 21.9119 62.2662 23.968C62.257 24.482 62.2478 25.0144 62.2478 25.5376V28.2271C62.1469 28.888 61.9358 31.3847 63.9919 33.2481C65.7635 34.8544 68.8568 37.9478 68.8843 37.9845C68.9853 38.0855 68.9486 38.0855 69.022 38.1222C69.2148 38.37 69.9859 39.6092 69.9859 43.3268V77.2528C69.9859 77.2528 69.9216 80.9612 67.5626 81.7873C64.8089 82.7511 63.1383 82.2738 63.1383 82.2738C62.4591 82.0443 61.7247 82.4115 61.4952 83.0999C61.2657 83.7792 61.6329 84.5227 62.3214 84.743C62.4499 84.7889 63.1474 85 64.3223 85C65.3504 85 66.7456 84.8348 68.4346 84.2473C72.556 82.8062 72.6019 77.4823 72.6019 77.2528V43.3268C72.6019 38.2507 71.271 36.5801 70.6835 36.0936L70.6651 36.0844Z" fill="#EA0711"/>
<path d="M64.2032 74.1963C64.4052 72.4706 64.4327 68.3308 64.2216 66.6143C64.1115 65.7147 63.5607 64.7326 62.8172 64.2094C64.7999 61.8412 64.7172 58.6652 62.349 56.5723C62.8355 55.939 63.3771 55.4708 63.7259 54.7365C64.7264 52.607 64.1849 50.6518 62.808 48.8619C64.5428 47.687 64.3593 45.0158 64.24 43.1616C63.882 37.5991 60.449 33.8999 57.2823 29.6041C57.0069 26.5199 58.3929 22.3893 54.299 21.2603H46.4876C42.4396 22.3801 43.7798 26.5382 43.5044 29.5949C39.4564 34.8545 35.9774 39.132 36.5465 46.1265C36.6475 47.3657 37.1432 48.0449 37.951 48.9445C35.9407 51.2393 36.1243 54.4611 38.4283 56.4897C38.4558 56.6549 37.7858 57.1965 37.6297 57.4076C35.9867 59.5831 36.3171 62.1441 37.951 64.2002C37.1707 64.907 36.675 65.6872 36.5557 66.7336C36.363 68.5419 36.3537 73.6547 36.8678 75.2886C37.6296 77.7027 39.9061 79.3549 42.513 79.5293C47.6441 79.8781 53.1975 79.254 58.3745 79.5293C61.3118 79.309 63.8636 77.0326 64.194 74.2054L64.2032 74.1963ZM46.1296 24.4913C46.1296 24.4271 46.4508 23.9497 46.561 23.8763C46.8364 23.6835 47.277 23.656 47.6074 23.6285C49.0302 23.5275 52.1694 23.4724 53.5187 23.6468C53.9318 23.7019 54.6569 24.0599 54.6569 24.4913V28.6494H46.1388V24.4913H46.1296ZM39.4472 41.1698C40.3008 37.287 43.2565 34.3497 45.5054 31.1737L55.0792 31.1462L55.428 31.2655C57.9064 34.8913 61.2568 38.1223 61.6423 42.7027C61.6974 43.3452 61.7432 46.154 61.5505 46.5946C61.4678 46.7874 61.1375 47.0811 60.9355 47.1454H39.8602C39.4563 46.9526 39.2086 46.6772 39.1535 46.2275C38.9791 44.8139 39.1443 42.5558 39.4472 41.1606V41.1698ZM60.8804 54.4428C60.3755 54.9476 59.6963 55.223 58.9712 55.2873C53.427 55.7462 47.2035 54.9476 41.5859 55.2689C38.2722 54.7182 38.3365 50.3305 41.5859 49.7155H59.0721C61.422 49.9909 62.5235 52.7814 60.8804 54.4428ZM59.0721 63.3465H41.7052C38.4558 62.8692 38.1896 58.6376 41.3656 57.8115L59.3108 57.7932C62.5786 58.5091 62.3307 62.86 59.0721 63.3465ZM57.787 77.1244C52.7385 77.5007 47.0475 76.9592 41.9622 76.9867C37.5563 75.977 39.6215 69.8454 39.1626 66.7244C39.2268 66.3297 39.5665 66.0085 39.9521 65.8892L60.9355 65.9167C61.3119 66.0911 61.624 66.4124 61.6423 66.8346C61.1467 70.5338 63.5148 76.7113 57.7962 77.1336L57.787 77.1244Z" fill="#EA0711"/>
<circle cx="50.0067" cy="50.0067" r="48.0067" stroke="#EA0711" stroke-width="4"/>
</svg>
