<svg width="101" height="101" viewBox="0 0 101 101" fill="none" xmlns="http://www.w3.org/2000/svg">
<path d="M78.6855 36.8702C78.5485 34.8793 76.3658 32.7697 74.4297 32.7697H50.7032V27.7467C50.7032 22.0662 40.7212 20.0753 35.8809 20.0023C31.6068 19.9383 20.4742 21.1986 19.9993 27.7376L20.0176 73.766V73.8756C20.666 76.3962 23.1501 77.5651 25.2414 78.3049C27.6159 79.1451 30.7758 79.7022 33.9083 79.8483C36.9768 79.9853 40.0911 80.0401 43.2053 80.0401C47.1232 80.0401 51.041 79.967 54.8859 79.8848C61.233 79.757 67.7903 79.6291 74.2014 79.8483C76.6307 79.6748 78.3841 78.0218 78.6855 75.5925V36.8702ZM47.6254 28.1851C47.2784 30.0025 43.7623 31.5368 41.6344 32.0756C36.6663 33.3359 30.3922 32.9523 26.3739 31.1532C24.3373 30.2399 23.1135 29.1075 23.0222 28.039C22.9491 27.2079 23.5519 26.3494 24.8122 25.491C26.8031 24.1393 30.2004 23.2078 33.8809 23.0069C37.6983 22.7968 43.1322 23.5183 46.0364 25.6097C47.251 26.4864 47.7898 27.3449 47.6254 28.176V28.1851ZM55.717 35.9021C61.8267 35.8017 68.1464 35.7012 74.3018 35.8656C75.0872 35.8656 75.6991 36.6967 75.7265 37.409L75.5986 75.766C75.3429 76.4236 74.8224 76.7889 74.0552 76.8711C67.8724 76.7067 61.5253 76.8071 55.3973 76.9076C48.6757 77.0172 41.7349 77.1268 34.9859 76.8802C31.616 76.7523 27.0132 76.2592 24.2734 74.597C23.7985 74.3048 23.0587 73.6838 22.9857 73.5285V32.6418C22.9857 32.6418 23.0678 32.6966 23.1044 32.7331C23.3601 32.9158 23.6158 33.1076 23.8989 33.2628C26.6935 34.8519 30.4013 35.7104 35.2142 35.8839C41.9998 36.1305 48.9771 36.0209 55.717 35.9113V35.9021ZM47.6072 32.6692V32.7697H47.4519L47.6072 32.6692Z" fill="#EA0711"/>
<path d="M45.8812 66.1127C45.6894 66.8341 46.009 67.5373 46.6849 67.857C46.8949 67.9574 47.1232 68.0122 47.3424 68.0031C47.8264 68.0031 48.3105 67.7565 48.6392 67.2816L59.2696 44.3314C59.4431 43.8382 59.3244 43.2903 58.9591 42.8702C58.5755 42.4318 58.0184 42.2309 57.4888 42.3405C56.7764 42.4866 56.3745 43.3724 56.0823 44.0117C56.0275 44.1213 55.9819 44.2309 55.9362 44.3131C54.1279 47.9205 52.4658 51.6831 50.8493 55.3179C49.2785 58.8522 47.6621 62.5144 45.9086 66.0213L45.872 66.1035L45.8812 66.1127Z" fill="#EA0711"/>
<path d="M57.169 67.9029C57.3608 67.9759 57.5434 68.0125 57.7352 68.0125C58.274 68.0125 58.7855 67.702 59.0777 67.154L69.5711 44.4869C69.7994 43.9298 69.7081 43.3087 69.3337 42.8521C68.9957 42.432 68.4661 42.2402 67.9364 42.3407C67.1419 42.4868 66.6304 43.5919 66.2651 44.4047C66.2103 44.5234 66.1646 44.633 66.119 44.7152C64.2833 48.423 62.5664 52.2861 60.9043 56.0122C59.4339 59.3091 57.9179 62.7156 56.3014 66.0855C56.0822 66.8709 56.4384 67.6198 57.169 67.912V67.9029Z" fill="#EA0711"/>
<path d="M36.4014 67.9028C36.5749 67.9759 36.7667 68.0215 36.9676 68.0215C37.4517 68.0215 37.9722 67.7749 38.3284 67.1539C39.7805 63.7109 41.4883 60.2223 43.1504 56.8523C45.0135 53.0532 46.9496 49.1261 48.5204 45.2265L48.6026 45.0165C48.8126 44.5233 49.0684 43.9206 48.8675 43.2539C48.6665 42.5872 47.7898 42.2219 47.1688 42.3589C46.4473 42.505 46.1094 43.2173 45.8537 43.7288L45.7441 43.948C43.881 47.5553 42.2006 51.4002 40.575 55.1171C39.0042 58.7063 37.3786 62.4232 35.5704 65.985C35.2781 66.9439 35.7895 67.6562 36.4014 67.9211V67.9028Z" fill="#EA0711"/>
<path d="M41.0685 26.249C39.7717 25.1987 37.1598 24.8425 35.2784 24.8425C34.493 24.8425 31.808 24.9339 30.0728 25.9293C29.123 26.4681 28.6116 27.2079 28.6299 28.0115C28.639 28.8335 29.2235 29.6006 30.2189 30.1303C31.4062 30.7605 33.3788 31.1075 35.3606 31.1075C37.5981 31.1075 39.8538 30.6783 41.0593 29.7376C41.863 29.1166 42.0365 28.459 42.0365 28.0207C42.0365 27.3814 41.7078 26.7695 41.0776 26.249H41.0685ZM39.3516 27.975C39.1872 28.0572 39.0228 28.1303 38.9771 28.1485C37.2145 28.8243 34.2373 28.8883 32.1916 28.2947C31.8902 28.2033 31.5888 28.112 31.324 27.975C31.4062 27.9294 31.4975 27.8928 31.5888 27.8563C33.3514 27.1166 36.8858 27.08 38.8676 27.7741C39.0776 27.8472 39.242 27.9202 39.3516 27.975Z" fill="#EA0711"/>
<circle cx="50.0067" cy="50.0067" r="48.0067" stroke="#EA0711" stroke-width="4"/>
</svg>
