<svg width="108" height="108" viewBox="0 0 108 108" fill="none" xmlns="http://www.w3.org/2000/svg">
<path d="M61.915 39.6749C61.225 39.3149 60.365 39.5849 60.005 40.2849L58.235 43.705C57.875 44.405 58.145 45.2549 58.845 45.6149C59.055 45.7249 59.275 45.7749 59.495 45.7749C60.005 45.7749 60.505 45.4949 60.755 45.0049L62.525 41.5849C62.885 40.8849 62.615 40.0349 61.915 39.6749Z" fill="black"/>
<path d="M59.015 48.3948C58.235 48.3948 57.595 49.0248 57.595 49.8148V75.3848C57.595 76.1648 58.225 76.8048 59.015 76.8048C59.805 76.8048 60.4351 76.1748 60.4351 75.3848V49.8148C60.4351 49.0348 59.805 48.3948 59.015 48.3948Z" fill="black"/>
<path d="M81.575 41.1349C81.405 40.5549 80.965 39.9748 80.135 38.9048C79.465 38.0448 78.455 36.7449 78.255 36.0449C78.245 36.0049 78.235 35.9448 78.225 35.9048C78.785 35.7148 79.1851 35.1948 79.1851 34.5648C79.1851 33.8448 78.6451 33.2549 77.9451 33.1649C77.9251 32.7149 77.915 32.2648 77.915 31.8348C79.685 31.4348 81.015 29.8449 81.015 27.9549C81.015 25.7549 79.225 23.9648 77.025 23.9648H56.585C54.385 23.9648 52.595 25.7549 52.595 27.9549C52.595 29.7849 53.835 31.3048 55.515 31.7748C55.515 32.2348 55.505 32.7349 55.485 33.2249C54.925 33.4149 54.525 33.9348 54.525 34.5548C54.525 35.0748 54.815 35.5348 55.235 35.7748C55.215 35.8648 55.205 35.9549 55.175 36.0349C54.975 36.7349 53.965 38.0348 53.295 38.8948C52.465 39.9648 52.025 40.5448 51.855 41.1248C51.825 41.2348 51.755 41.4649 51.725 44.9149C51.565 44.8549 51.405 44.8148 51.225 44.8148H43.225L43.835 44.2649C44.415 43.7449 44.4651 42.8449 43.9451 42.2649C43.4251 41.6849 42.5251 41.6348 41.9451 42.1548L38.985 44.8148H26.175V41.0848H50.385C51.165 41.0848 51.8051 40.4549 51.8051 39.6649C51.8051 38.8749 51.175 38.2448 50.385 38.2448H26.255C26.575 36.5948 27.895 35.3448 29.475 35.3448H51.225C52.005 35.3448 52.645 34.7148 52.645 33.9248C52.645 33.1348 52.015 32.5049 51.225 32.5049H29.475C26.095 32.5049 23.345 35.4248 23.345 39.0248V46.2148C23.345 46.9948 23.975 47.6349 24.765 47.6349H26.5551L27.405 55.2148L25.145 57.2448C24.565 57.7648 24.515 58.6648 25.035 59.2448C25.315 59.5548 25.705 59.7148 26.085 59.7148C26.425 59.7148 26.765 59.5949 27.035 59.3549L27.795 58.6748L29.145 70.7249C29.335 73.4249 31.045 78.5749 36.205 78.6949C41.355 78.8149 47.775 78.8148 47.845 78.8148C48.625 78.8148 49.265 78.1848 49.265 77.3948C49.265 76.6048 48.635 75.9749 47.845 75.9749C47.785 75.9749 41.395 75.9749 36.275 75.8549C32.415 75.7649 31.995 70.7348 31.965 70.4648L30.375 56.3348L40.0651 47.6248H51.225C51.395 47.6248 51.555 47.5949 51.705 47.5349C51.685 52.5049 51.6951 61.3949 51.8051 77.4149C51.7651 77.9149 51.745 79.6848 53.125 81.2748C54.495 82.8548 56.7451 83.6849 59.8051 83.7349C62.2251 83.7749 64.185 83.7849 65.705 83.7849C66.065 83.7849 66.395 83.7849 66.705 83.7849C67.015 83.7849 67.345 83.7849 67.705 83.7849C69.235 83.7849 71.185 83.7749 73.605 83.7349C76.665 83.6849 78.915 82.8548 80.285 81.2748C81.665 79.6848 81.645 77.9149 81.605 77.4149C81.845 42.1249 81.6251 41.3549 81.5551 41.1049L81.575 41.1349ZM30.005 52.9048L29.415 47.6548H35.845L30.005 52.9048ZM75.085 31.9348C75.085 32.2948 75.095 32.7048 75.115 33.1448H58.335C58.355 32.7148 58.355 32.3048 58.365 31.9348H75.095H75.085ZM56.595 26.7949H77.035C77.675 26.7949 78.1851 27.3149 78.1851 27.9449C78.1851 28.5749 77.665 29.0948 77.035 29.0948H56.595C55.955 29.0948 55.4451 28.5749 55.4451 27.9449C55.4451 27.3149 55.965 26.7949 56.595 26.7949ZM78.8051 77.6748C78.8051 77.6748 78.875 78.6248 78.165 79.4348C77.355 80.3648 75.7649 80.8749 73.575 80.9149C72.415 80.9349 71.375 80.9449 70.425 80.9549C70.305 80.9249 70.175 80.9149 70.045 80.9149C70.025 80.9149 68.935 80.9548 66.615 80.9648C64.435 80.9548 63.405 80.9149 63.395 80.9149C63.265 80.9149 63.145 80.9249 63.025 80.9549C62.075 80.9549 61.025 80.9349 59.865 80.9149C57.705 80.8749 56.1251 80.3748 55.3051 79.4648C54.5651 78.6348 54.635 77.6849 54.635 77.6649C54.635 77.6049 54.645 77.5449 54.645 77.4749C54.555 64.2049 54.475 44.1548 54.615 41.8748C54.775 41.6048 55.215 41.0448 55.545 40.6248C56.485 39.4148 57.555 38.0348 57.915 36.8048C57.985 36.5648 58.045 36.2748 58.095 35.9648H75.355C75.405 36.2748 75.465 36.5648 75.535 36.8048C75.885 38.0348 76.955 39.4148 77.905 40.6248C78.245 41.0648 78.705 41.6549 78.835 41.8549C78.975 44.0149 78.8951 64.1549 78.8051 77.4749C78.8051 77.5349 78.8051 77.5949 78.8151 77.6649L78.8051 77.6748Z" fill="black"/>
<path d="M83.5651 1.41504H24.0651C11.5558 1.41504 1.41504 11.5558 1.41504 24.065V83.565C1.41504 96.0743 11.5558 106.215 24.0651 106.215H83.5651C96.0743 106.215 106.215 96.0743 106.215 83.565V24.065C106.215 11.5558 96.0743 1.41504 83.5651 1.41504Z" stroke="black" stroke-width="2.83" stroke-miterlimit="10"/>
</svg>
