<svg width="18" height="18" viewBox="0 0 18 18" fill="none" xmlns="http://www.w3.org/2000/svg">
<path fill-rule="evenodd" clip-rule="evenodd" d="M3.98607 0.00532913C4.54433 0.0052409 5.15587 -0.016914 5.71361 0.0375557C5.80046 0.0461803 5.90258 0.143912 5.94506 0.21529C6.104 0.482912 6.05228 0.961731 6.05248 1.269L6.05345 2.70259C6.05337 3.69373 6.09704 4.70777 6.0476 5.69674C6.04117 5.82532 6.03695 6.05067 5.96752 6.16158C5.86426 6.32562 5.6648 6.48945 5.52709 6.63228C5.18541 6.98668 3.49404 8.61544 3.44408 8.96334C3.42732 9.08358 3.59682 9.29797 3.66967 9.38619C3.99864 9.78463 4.39864 10.1494 4.7683 10.5102C5.17925 10.9131 5.58692 11.32 5.99095 11.7299L7.6765 13.436C7.97725 13.7413 8.27382 14.0537 8.58568 14.3481C8.94969 14.6863 9.14891 14.5725 9.47142 14.2749C10.2823 13.5266 11.0457 12.6891 11.8601 11.9497C12.3202 11.8047 14.7335 11.8754 15.3269 11.8754H16.6326C17.1285 11.8758 17.372 11.762 17.698 12.1743C17.7584 13.3102 17.6782 14.5191 17.7087 15.6626C17.7259 16.3083 17.7148 17.0033 17.7009 17.6508L17.5632 17.854C17.4731 17.8985 17.4007 17.9311 17.3074 17.9682L13.5867 17.9711C13.0988 17.9716 12.5372 17.9862 12.0495 17.9526C11.9327 17.9445 11.7424 17.7881 11.6521 17.6997L10.0798 16.1567C9.86241 15.9438 9.38105 15.4455 9.14818 15.2993L9.13646 15.2924C9.03952 15.2888 8.92453 15.2916 8.82592 15.2915C8.65569 15.3899 8.31878 15.7375 8.16381 15.8891L6.97045 17.0571C5.8825 18.1177 5.9747 17.9688 4.47045 17.9702H1.13842C0.662543 17.9707 0.324647 18.0739 0.0231812 17.646C-0.00907881 17.3378 0.00289729 16.8981 0.00267335 16.5776V13.0258C0.00261753 12.6841 -0.0103197 12.2343 0.021228 11.9008C0.381907 11.2736 2.4664 9.52382 2.56615 9.09224C2.59152 8.98208 2.57978 8.86541 2.52416 8.76607C2.40305 8.55001 2.17288 8.3529 2.00267 8.17525L0.760486 6.88521C0.559086 6.67624 0.171815 6.30056 0.0290405 6.06881L0.0222046 6.05611C-0.00926331 5.75779 0.00288032 5.28959 0.00267335 4.97506V1.41451C0.00250289 1.09472 -0.0106312 0.63493 0.0231812 0.325642C0.0310288 0.312761 0.0393824 0.300202 0.0475952 0.287556C0.179117 0.0858468 0.237149 0.0525722 0.455798 0.00630569L3.98607 0.00532913ZM15.737 0.00532913C16.2534 0.00514886 16.8962 -0.0194335 17.407 0.0385323C17.5397 0.0539525 17.6384 0.22877 17.7068 0.338337L17.7029 5.76705C17.5869 5.96256 17.5036 6.05523 17.2732 6.07857L12.0115 6.07662C11.9972 6.06782 11.9826 6.05841 11.9685 6.04927C11.8717 5.98615 11.7265 5.87782 11.7175 5.75435C11.6691 5.08416 11.6885 4.37187 11.6882 3.70162V1.10494C11.6889 0.915356 11.6908 0.725649 11.698 0.535603C11.711 0.192608 11.801 0.0730387 12.1443 0.00728226L15.737 0.00532913Z" fill="#FEFEFE"/>
</svg>
