<svg width="14" height="14" viewBox="0 0 14 14" fill="none" xmlns="http://www.w3.org/2000/svg">
<path d="M7.65616 13.2432V7.19059H9.67369L9.98408 4.83681H7.65616V3.3366C7.65616 3.00034 7.72729 2.7266 7.86956 2.51536C8.01182 2.30412 8.32867 2.19851 8.82012 2.19851H10.0617V0.103385C9.95821 0.0775185 9.73835 0.0538082 9.4021 0.0322542C9.06585 0.0106993 8.68217 -7.82013e-05 8.25108 -7.82013e-05C7.80274 -7.82013e-05 7.39104 0.0667419 7.01599 0.200381C6.64093 0.334021 6.32192 0.532324 6.05896 0.795292C5.79599 1.05826 5.59122 1.38158 5.44465 1.76526C5.29807 2.14893 5.22479 2.59511 5.22479 3.10381V4.83681H3.1814V7.19059H5.22479V13.2432H7.65616Z" fill="white"/>
</svg>
